# Blender v2.79 (sub 0) OBJ File: 'wrench.blend'
# www.blender.org
mtllib wrench.mtl
o Plane
v 1.373968 -1.369844 1.037798
v 1.295618 -1.333414 0.976791
v 1.145317 -1.219648 0.814597
v -1.970955 1.389678 -2.806119
v -2.162191 1.464172 -2.940180
v -2.519587 1.534791 -3.120121
v -2.807168 1.555334 -3.227571
v -2.961620 1.614407 -3.334720
v -3.143481 1.754461 -3.533441
v -3.256937 1.960481 -3.779523
v -3.266620 2.048148 -3.872655
v -3.218149 2.064857 -3.875304
v -2.735394 1.866795 -3.526580
v -2.654958 1.866521 -3.502158
v -2.494383 1.930750 -3.520071
v -2.292329 2.070314 -3.603068
v -2.223188 2.233153 -3.749908
v -2.250582 2.348295 -3.876631
v -2.508344 2.472663 -4.081989
v -2.680841 2.540430 -4.203502
v -2.695347 2.576011 -4.244473
v -2.566674 2.614158 -4.245118
v -2.267298 2.627818 -4.169330
v -1.919890 2.585143 -4.021146
v -1.827181 2.526697 -3.933172
v -1.780910 2.375278 -3.763447
v -1.781813 2.023575 -3.401751
v -1.636414 1.780304 -3.107745
v 1.596215 -0.919601 0.641115
v 1.730820 -1.044107 0.809652
v 1.770459 -1.106387 0.885646
v -2.172971 1.541024 -2.814925
v -2.511092 1.607836 -2.985161
v -2.485357 1.519585 -3.070908
v -2.147237 1.452775 -2.900672
v -3.201463 1.876193 -3.468541
v -3.309591 2.072539 -3.703068
v -3.283857 1.984290 -3.788815
v -3.175729 1.787943 -3.554288
v -2.785061 1.990727 -3.461449
v -2.719998 1.990505 -3.441695
v -2.694264 1.902256 -3.527442
v -2.759327 1.902478 -3.547196
v -2.283473 2.363764 -3.694837
v -2.301765 2.440649 -3.779456
v -2.276031 2.352400 -3.865203
v -2.257739 2.275514 -3.780584
v -2.316522 2.750765 -4.103051
v -1.983090 2.709806 -3.960829
v -1.957356 2.621556 -4.046576
v -2.290788 2.662515 -4.188799
v -2.748883 2.701247 -4.181847
v -2.629828 2.736543 -4.182442
v -2.604094 2.648293 -4.268190
v -2.723149 2.612998 -4.267594
v -1.995506 1.473665 -2.692340
v -2.150987 1.534230 -2.801334
v -2.125252 1.445980 -2.887081
v -1.969772 1.385415 -2.778087
v -2.999351 1.714517 -3.241489
v -3.166708 1.843400 -3.424360
v -3.140972 1.755151 -3.510108
v -2.973616 1.626267 -3.327236
v -3.262148 2.183558 -3.803087
v -2.805503 1.996207 -3.473224
v -2.779769 1.907958 -3.558971
v -3.236414 2.095308 -3.888836
v -1.952686 2.694850 -3.936311
v -1.853654 2.632419 -3.842336
v -1.827919 2.544169 -3.928084
v -1.926952 2.606601 -4.022058
v -2.617796 2.738416 -4.180758
v -2.331575 2.751476 -4.108301
v -2.305841 2.663226 -4.194047
v -2.592062 2.650166 -4.266506
v -2.348825 2.198431 -3.544292
v -2.283600 2.352044 -3.682812
v -2.257866 2.263794 -3.768560
v -2.323090 2.110182 -3.630040
v 1.146468 -1.149167 0.949991
v 1.172202 -1.237417 0.864244
v 1.282989 -1.321274 0.983797
v 1.257255 -1.233024 1.069544
v 1.088683 -1.103081 0.885218
v -1.953553 1.444252 -2.649478
v -1.927819 1.356002 -2.735225
v 1.114417 -1.191331 0.799471
v -2.820963 1.635049 -3.106167
v -2.957764 1.687371 -3.201072
v -2.932030 1.599122 -3.286819
v -2.795229 1.546800 -3.191914
v -3.320108 2.173618 -3.810252
v -3.280510 2.187269 -3.812418
v -3.254776 2.099019 -3.898165
v -3.294374 2.085369 -3.896000
v -1.774628 2.088665 -3.258998
v -1.647926 1.876678 -3.002799
v -1.622192 1.788427 -3.088547
v -1.748894 2.000414 -3.344745
v -1.612028 1.841107 -2.955417
v 1.547798 -0.797992 0.709013
v 1.573532 -0.886242 0.623266
v -1.586294 1.752857 -3.041165
v -1.814051 2.134130 -3.294330
v -2.548631 2.057309 -3.459018
v -2.354610 2.191324 -3.538714
v -2.328876 2.103075 -3.624462
v -2.522896 1.969059 -3.544765
v 1.760494 -1.061402 0.859648
v 1.734760 -0.973153 0.945395
v 1.763993 -1.019082 1.001439
v 1.789727 -1.107332 0.915691
v -2.528071 1.610211 -2.992702
v -2.800611 1.629679 -3.094532
v -2.774877 1.541430 -3.180279
v -2.502337 1.521961 -3.078449
v -3.316072 2.089504 -3.722473
v -3.324452 2.165372 -3.803069
v -3.298718 2.077122 -3.888817
v -3.290338 2.001254 -3.808220
v -2.708017 1.992416 -3.440065
v -2.557385 2.052668 -3.456869
v -2.531651 1.964418 -3.542616
v -2.682283 1.904167 -3.525812
v -2.318999 2.455444 -3.799855
v -2.495939 2.540816 -3.940820
v -2.470205 2.452566 -4.026567
v -2.293265 2.367194 -3.885602
v -2.524280 2.553339 -3.962214
v -2.714112 2.627915 -4.095939
v -2.688377 2.539666 -4.181687
v -2.498546 2.465089 -4.047962
v -2.730533 2.641729 -4.115084
v -2.750586 2.690917 -4.171726
v -2.724852 2.602667 -4.257473
v -2.704799 2.553479 -4.200832
v 1.628244 -0.934225 0.689069
v 1.602510 -0.845975 0.774816
v 1.701775 -0.937794 0.899106
v 1.727510 -1.026043 0.813358
v 1.300758 -1.261601 1.112011
v 1.326493 -1.349851 1.026264
v 1.384244 -1.376703 1.071232
v 1.358510 -1.288453 1.156979
v 1.767511 -1.033520 1.017354
v 1.377403 -1.292736 1.167057
v 1.403137 -1.380986 1.081310
v 1.793245 -1.121770 0.931606
v -1.829152 2.610644 -3.812573
v -1.782789 2.458925 -3.642511
v -1.757055 2.370675 -3.728260
v -1.803418 2.522395 -3.898320
v -1.780409 2.445176 -3.627647
v -1.781280 2.105731 -3.278559
v -1.754676 2.356926 -3.713395
v -1.755546 2.017480 -3.364306
v 1.058797 -1.001797 1.035532
v -2.057475 1.607529 -2.585184
v -2.803165 2.808543 -4.068331
v -2.684110 2.843839 -4.068926
v -2.578562 2.660635 -3.848699
v -2.768394 2.735211 -3.982423
v -2.006968 2.802146 -3.822796
v -2.006410 2.802994 -3.800210
v 1.287448 -1.151994 1.258733
v 1.304228 -1.181157 1.270494
v -3.053633 1.821813 -3.127973
v -3.220989 1.950696 -3.310844
v 1.034401 -0.995785 0.998734
v -2.007835 1.551549 -2.535962
v -2.378850 2.288166 -3.382133
v -2.408892 2.298620 -3.425199
v -2.767362 2.758281 -3.982566
v -2.594865 2.690514 -3.861053
v -3.230001 1.972312 -3.312505
v -3.048140 1.832258 -3.113784
v -2.672078 2.845712 -4.067243
v -2.859785 2.103504 -3.359708
v -2.821915 2.084646 -3.305644
v 1.493516 -0.690696 0.822528
v 1.548228 -0.738679 0.888332
v -3.316430 2.290854 -3.689572
v 1.680478 -0.865857 1.058910
v 1.709711 -0.911786 1.114954
v -2.227253 1.648321 -2.701409
v -2.205272 1.641525 -2.687814
v -2.875245 1.742346 -2.992651
v -2.893688 1.773185 -3.006635
v -2.037372 2.817102 -3.847313
v -2.337882 2.459340 -3.569297
v -2.309709 2.451004 -3.528973
v -2.804868 2.798213 -4.058210
v -3.012046 1.794668 -3.087556
v 1.644299 -0.826256 1.030586
v 1.647493 -0.830498 1.012622
v -2.353819 2.845670 -3.948394
v -3.374390 2.280914 -3.696737
v -3.334792 2.294565 -3.698902
v 1.683939 -0.888536 1.106581
v 1.713229 -0.926224 1.130870
v -1.666310 1.948404 -2.841901
v -1.722934 1.998156 -2.886809
v -1.868333 2.241427 -3.180815
v -1.867431 2.593128 -3.542511
v -2.854893 1.736976 -2.981016
v -3.304669 2.282708 -3.654368
v -3.353141 2.265999 -3.651719
v -1.837071 2.566221 -3.528996
v -1.834691 2.552472 -3.514132
v -2.580903 2.148602 -3.299135
v -3.363873 2.179835 -3.589552
v -3.343456 2.178332 -3.558587
v -2.385857 2.858773 -3.994785
v -2.373281 2.562740 -3.686339
v -2.550221 2.648113 -3.827305
v -2.403107 2.305727 -3.430777
v 1.209098 -1.115563 1.197726
v 1.246476 -1.154305 1.225526
v -2.356047 2.547945 -3.665941
v -2.337103 2.566145 -3.655696
v -2.582353 1.717508 -2.879186
v -2.565374 1.715132 -2.871645
v -3.370353 2.196800 -3.608957
v -3.378734 2.272668 -3.689554
v -1.702208 1.983974 -2.889283
v -1.907936 2.739715 -3.728821
v -1.913701 2.744548 -3.712236
v -2.762299 2.099713 -3.326549
v -2.611667 2.159965 -3.343353
v -2.049788 1.580962 -2.578824
v -2.606107 1.752643 -2.899185
v -2.248712 1.682023 -2.719244
v -1.883434 2.717940 -3.699058
v -2.653194 2.832009 -4.024182
v -2.774280 2.097802 -3.328179
v -2.741479 2.084372 -3.281222
v 1.092186 -1.041871 1.063506
v 1.202973 -1.125728 1.183059
v -2.602913 2.164606 -3.345502
v -3.255745 1.983489 -3.355025
v -2.839343 2.098024 -3.347933
v 1.323121 -1.185440 1.280572
v 1.509695 -0.701750 0.862051
v -2.370804 2.858061 -3.989535
v -2.784815 2.749025 -4.001568
v -2.337755 2.471060 -3.581322
v -1.828910 2.195961 -3.145482
v -2.781867 2.793861 -4.023538
v -1.835562 2.213027 -3.165043
vn 0.2047 -0.7020 -0.6821
vn -0.4294 -0.6906 0.5819
vn -0.9203 -0.3753 0.1101
vn 0.2062 0.7122 -0.6711
vn -0.9660 -0.2574 -0.0250
vn 0.3503 0.7033 -0.6187
vn -0.1972 0.6530 -0.7312
vn -0.5912 -0.6441 0.4854
vn -0.7741 -0.5426 0.3261
vn 0.6053 0.6384 -0.4754
vn 0.7231 0.5781 -0.3780
vn 0.1420 0.7108 -0.6889
vn -0.9315 0.0744 -0.3561
vn -0.7699 -0.5458 0.3306
vn -0.7939 -0.5267 0.3038
vn -0.5862 -0.6460 0.4889
vn -0.2582 0.6334 -0.7294
vn 0.9118 0.3903 -0.1280
vn 0.7934 0.5272 -0.3044
vn 0.5640 -0.4483 0.6935
vn -0.5920 0.4661 -0.6574
vn 0.9045 0.4020 -0.1423
vn -0.2907 -0.7090 0.6425
vn -0.9759 -0.2001 -0.0869
vn -0.3243 0.6089 -0.7240
vn -0.6501 -0.6185 0.4414
vn -0.5935 -0.6432 0.4838
vn -0.9441 -0.3255 0.0516
vn 0.8161 0.5072 -0.2771
vn -0.6398 -0.6233 0.4495
vn 0.5733 -0.4788 0.6649
vn 0.9583 0.2857 -0.0064
vn 0.7967 0.5806 -0.1678
vn 0.8035 0.5738 -0.1582
vn -0.7381 -0.6297 0.2423
vn -0.9120 -0.4071 -0.0513
vn 0.4024 0.7532 0.5203
vn -0.5674 -0.7165 0.4059
vn -0.5986 -0.7051 0.3802
vn 0.1921 0.7574 -0.6241
vn 0.8116 0.5655 -0.1464
vn -0.9407 -0.2903 -0.1754
vn -0.7017 -0.6540 0.2827
vn -0.0159 0.7228 -0.6908
vn 0.2456 0.7604 -0.6013
vn -0.2000 0.6625 -0.7219
vn 0.9363 0.3196 0.1457
vn 0.9445 0.2343 0.2302
vn -0.3502 -0.7585 0.5495
vn 0.6273 0.6931 -0.3551
vn -0.4086 -0.7528 0.5161
vn -0.5820 0.4335 -0.6880
vn 0.7608 0.6124 -0.2150
vn 0.8761 0.4808 -0.0355
vn -0.2741 -0.7609 0.5881
vn 0.9296 0.3509 0.1128
vn -0.7869 -0.5898 0.1812
vn 0.7057 -0.4602 -0.5387
vn -0.2744 -0.6495 -0.7091
vn 0.8012 0.0115 -0.5983
vn 0.1878 -0.4003 -0.8969
vn 0.7304 -0.3720 -0.5729
vn 0.3008 -0.3036 -0.9041
vn 0.8218 0.1910 -0.5368
vn 0.6713 0.1905 -0.7163
vn -0.4858 -0.8514 -0.1976
vn -0.3281 -0.9377 -0.1142
vn -0.3088 -0.8747 -0.3735
vn -0.2474 -0.6925 -0.6776
vn -0.0551 -0.5883 -0.8068
vn 0.0592 -0.5093 -0.8585
vn 0.1879 -0.4211 -0.8873
vn 0.4472 -0.2033 -0.8710
vn 0.4254 -0.1420 -0.8938
vn -0.1501 -0.6032 -0.7833
vn -0.4827 -0.7329 -0.4795
vn -0.7470 -0.6573 0.0998
vn -0.6427 -0.7497 0.1578
vn -0.1526 -0.9715 -0.1814
vn -0.0037 -0.9562 -0.2928
vn -0.1642 -0.9626 -0.2155
vn -0.4924 -0.8633 -0.1105
vn -0.4691 -0.7428 0.4778
vn -0.7022 -0.6537 0.2821
vn 0.7744 0.6010 -0.1978
vn -0.7033 -0.6530 0.2810
vn 0.4727 0.7420 -0.4753
vn -0.8804 0.0532 -0.4713
vn -0.1371 -0.9778 -0.1584
vn -0.7040 -0.6980 0.1314
vn -0.6408 -0.7530 0.1497
vn 0.8300 0.3200 -0.4568
vn 0.7759 -0.3723 -0.5093
vn 0.8684 0.2473 -0.4299
vn -0.5651 -0.7172 0.4077
vn -0.5064 -0.7344 0.4519
vn -0.0209 0.7216 -0.6920
vn 0.9224 0.3769 0.0848
vn -0.9033 -0.0032 -0.4289
vn -0.7195 -0.6426 0.2633
vn -0.9302 -0.3484 -0.1155
vn -0.2593 0.6369 -0.7260
vn -0.8846 -0.4661 0.0176
vn -0.7614 -0.6119 0.2143
vn -0.6122 -0.6996 0.3685
vn 0.8690 0.4923 -0.0498
vn -0.7965 0.2006 -0.5705
vn 0.3319 0.7596 -0.5593
vn -0.7669 -0.6074 0.2074
vn -0.6221 -0.6954 0.3598
vn 0.5788 0.7125 -0.3966
vn 0.4129 0.7522 -0.5135
vn -0.3234 0.6056 -0.7271
vn -0.7422 -0.6267 0.2375
vn -0.7624 -0.6111 0.2130
vn 0.7715 0.6035 -0.2015
vn 0.1297 0.7508 -0.6477
vn -0.4360 -0.7488 0.4992
vn 0.6367 -0.5536 -0.5367
vn 0.1300 -0.4535 -0.8817
vn 0.7368 -0.3922 -0.5508
vn 0.3502 -0.2667 -0.8979
vn 0.8245 -0.1623 -0.5421
vn 0.7404 0.2166 -0.6363
vn 0.2443 -0.3621 -0.8996
vn -0.4595 -0.7447 -0.4840
vn -0.2815 -0.9506 -0.1305
vn -0.3931 -0.9174 -0.0621
vn -0.3761 -0.7248 -0.5772
vn -0.1439 -0.6283 -0.7645
vn 0.0193 -0.5315 -0.8468
vn 0.0945 -0.4796 -0.8724
vn 0.2724 -0.3378 -0.9009
vn 0.5823 -0.0119 -0.8129
vn 0.1128 -0.4663 -0.8774
vn -0.3195 -0.7063 -0.6317
vn -0.5334 -0.7533 -0.3847
vn -0.6698 -0.7366 0.0938
vn -0.2687 -0.9533 -0.1382
vn 0.0489 -0.9487 -0.3123
vn -0.0624 -0.9650 -0.2547
vn -0.2774 -0.9515 -0.1330
vn -0.3692 -0.7008 0.6104
vn -0.4919 -0.6763 0.5484
vn -0.9480 -0.3158 0.0405
vn -0.9065 0.1269 -0.4026
vn -0.0130 0.6949 -0.7190
vn -0.4610 0.5456 -0.6999
vn -0.7996 -0.5219 0.2971
vn -0.6257 -0.6297 0.4603
vn -0.0078 0.6957 -0.7183
vn 0.2613 0.7108 -0.6531
vn 0.8074 0.5151 -0.2878
vn 0.9718 0.2289 0.0561
vn -0.5304 -0.6652 0.5255
vn -0.8203 -0.5033 0.2718
vn 0.4957 0.6753 -0.5462
vn 0.6554 0.6159 -0.4371
vn -0.9788 -0.1414 -0.1482
vn 0.8304 0.4935 -0.2587
vn -0.7508 -0.5597 0.3508
vn -0.7323 -0.5722 0.3692
vn 0.4339 0.6897 -0.5796
vn -0.7950 -0.5258 0.3025
vn -0.9718 -0.0625 -0.2273
vn 0.9468 0.3187 -0.0439
vn -0.8169 0.2614 -0.5142
vn 0.8384 0.2527 -0.4829
vn 0.8044 0.5177 -0.2914
vn -0.9446 -0.2301 -0.2342
vn 0.8457 0.4777 -0.2378
vn 0.8332 -0.1265 -0.5383
vn 0.7828 0.5936 -0.1867
vn 0.9654 0.2598 0.0223
vn 0.6928 0.6594 -0.2920
vn -0.7825 -0.5360 0.3168
vn -0.6627 -0.7431 0.0929
vn -0.7340 -0.5711 0.3675
vn -0.4558 0.5278 -0.7168
vn -0.3713 -0.9254 -0.0757
vn -0.4578 -0.6846 0.5672
vn -0.7503 -0.6206 0.2278
vn -0.5604 -0.7188 0.4115
vn -0.9394 -0.1481 -0.3092
vn -0.6953 -0.7138 0.0839
vn 0.3660 -0.8127 -0.4535
vn 0.8182 0.2910 -0.4959
vn 0.9788 0.1455 0.1440
vn -0.2047 0.7020 0.6821
vn 0.3638 0.7121 0.6004
vn -0.6361 0.5909 0.4962
vn 0.5702 0.8035 0.1712
vn -0.1935 0.9072 0.3736
vn -0.0640 0.9479 0.3120
vn 0.6579 0.7530 0.0093
vn 0.4697 0.8817 -0.0447
vn -0.7450 0.0374 0.6660
vn -0.6020 0.0017 0.7985
vn -0.6387 0.2564 0.7255
vn -0.6150 0.5680 0.5470
vn -0.4449 0.7483 0.4920
vn -0.3319 0.8319 0.4447
vn -0.1968 0.8977 0.3942
vn 0.1080 0.9598 0.2591
vn 0.0994 0.9762 0.1927
vn -0.5297 0.6984 0.4814
vn -0.7867 0.3100 0.5338
vn -0.8454 -0.3196 0.4279
vn -0.7602 -0.3466 0.5494
vn -0.4697 0.1160 0.8752
vn -0.3600 0.2657 0.8943
vn -0.4876 0.1451 0.8609
vn -0.7301 -0.0481 0.6816
vn -0.8089 -0.3382 0.4810
vn -0.4509 0.0983 0.8871
vn -0.7617 -0.3384 0.5526
vn 0.4616 0.7054 0.5379
vn 0.7249 0.6806 -0.1064
vn 0.7466 0.6648 -0.0242
vn 0.2743 0.6891 0.6707
vn -0.2575 0.8753 0.4093
vn 0.4084 0.7336 0.5431
vn -0.0065 0.9567 0.2909
vn 0.5574 0.7538 0.3481
vn 0.5629 0.8253 -0.0449
vn -0.1315 0.9265 0.3525
vn -0.7702 0.3207 0.5512
vn -0.5676 0.0305 0.8227
vn -0.6412 -0.0667 0.7645
vn -0.7141 0.4343 0.5490
vn -0.5260 0.6818 0.5084
vn -0.3716 0.8089 0.4556
vn -0.2949 0.8558 0.4251
vn -0.0991 0.9363 0.3370
vn 0.3031 0.9457 0.1176
vn -0.2757 0.8660 0.4171
vn -0.6722 0.5030 0.5433
vn -0.8127 0.2043 0.5457
vn -0.7992 -0.2929 0.5250
vn -0.5588 0.0414 0.8283
vn -0.3151 0.2996 0.9005
vn -0.4057 0.2122 0.8890
vn -0.5647 0.0341 0.8246
vn 0.7059 0.7071 -0.0414
vn 0.5767 0.7532 0.3165
vn -0.7948 -0.2902 0.5330
vn -0.6273 -0.0475 0.7773
vn -0.8187 -0.2905 0.4953
vn -0.0249 0.5278 0.8490
vn 0.6947 0.7143 -0.0846
vn -0.9081 -0.4167 -0.0404
usemtl Material.001
s off
f 1//1 2//1 3//1 4//1 5//1 6//1 7//1 8//1 9//1 10//1 11//1 12//1 13//1 14//1 15//1 16//1 17//1 18//1 19//1 20//1 21//1 22//1 23//1 24//1 25//1 26//1 27//1 28//1 29//1 30//1 31//1
f 32//2 33//2 34//2 35//2
f 36//3 37//3 38//3 39//3
f 40//4 41//4 42//4 43//4
f 44//5 45//5 46//5 47//5
f 48//6 49//6 50//6 51//6
f 52//7 53//7 54//7 55//7
f 56//8 57//8 58//8 59//8
f 60//9 61//9 62//9 63//9
f 64//10 65//10 66//10 67//10
f 68//11 69//11 70//11 71//11
f 72//12 73//12 74//12 75//12
f 76//13 77//13 78//13 79//13
f 80//14 81//14 82//14 83//14
f 84//15 85//15 86//15 87//15
f 88//16 89//16 90//16 91//16
f 92//17 93//17 94//17 95//17
f 96//18 97//18 98//18 99//18
f 100//19 101//19 102//19 103//19
f 146//20 145//20 200//20 242//20
f 105//21 106//21 107//21 108//21
f 109//22 110//22 111//22 112//22
f 113//23 114//23 115//23 116//23
f 117//24 118//24 119//24 120//24
f 121//25 122//25 123//25 124//25
f 125//26 126//26 127//26 128//26
f 129//27 130//27 131//27 132//27
f 133//28 134//28 135//28 136//28
f 137//29 138//29 139//29 140//29
f 141//30 142//30 143//30 144//30
f 145//31 146//31 147//31 148//31
f 149//32 150//32 151//32 152//32
f 100//33 97//33 225//33 201//33
f 96//34 104//34 203//34 247//34
f 80//35 83//35 238//35 237//35
f 117//36 37//36 211//36 223//36
f 96//37 154//37 104//37
f 130//38 129//38 161//38 162//38
f 129//39 126//39 215//39 161//39
f 41//40 40//40 241//40 235//40
f 110//41 139//41 195//41 183//41
f 118//42 117//42 223//42 224//42
f 60//43 89//43 193//43 167//43
f 72//44 53//44 160//44 177//44
f 48//45 73//45 213//45 244//45
f 53//46 52//46 159//46 160//46
f 153//47 150//47 208//47 209//47
f 154//48 153//48 209//48 249//48
f 113//49 33//49 222//49 221//49
f 68//50 49//50 189//50 163//50
f 33//51 32//51 185//51 222//51
f 106//52 105//52 239//52 172//52
f 101//53 100//53 201//53 180//53
f 97//54 96//54 247//54 225//54
f 114//55 113//55 221//55 205//55
f 145//56 111//56 184//56 200//56
f 36//57 61//57 168//57 240//57
f 151//58 155//58 26//58
f 135//59 55//59 21//59
f 103//60 28//60 98//60
f 22//61 54//61 75//61
f 27//62 156//62 99//62
f 74//63 51//63 23//63
f 70//64 152//64 25//64
f 24//65 50//65 71//65
f 131//66 136//66 20//66
f 127//67 132//67 19//67
f 46//68 128//68 18//68
f 78//69 47//69 17//69
f 107//70 79//70 16//70
f 123//71 108//71 15//71
f 42//72 124//72 14//72
f 66//73 43//73 13//73
f 94//74 67//74 12//74
f 119//75 95//75 11//75
f 38//76 120//76 10//76
f 62//77 39//77 9//77
f 90//78 63//78 8//78
f 115//79 91//79 7//79
f 34//80 116//80 6//80
f 58//81 35//81 5//81
f 59//82 4//82 86//82
f 88//83 114//83 205//83 187//83
f 104//84 154//84 249//84 203//84
f 149//85 69//85 226//85 233//85
f 83//86 141//86 218//86 238//86
f 40//87 65//87 178//87 241//87
f 92//88 118//88 224//88 197//88
f 143//89 1//89 147//89
f 81//90 87//90 3//90
f 82//91 2//91 142//91
f 137//92 29//92 102//92
f 148//93 31//93 112//93
f 109//94 30//94 140//94
f 57//95 56//95 230//95 186//95
f 32//96 57//96 186//96 185//96
f 121//97 41//97 235//97 228//97
f 150//98 149//98 233//98 208//98
f 77//99 76//99 216//99 190//99
f 56//100 85//100 170//100 230//100
f 45//101 44//101 246//101 219//101
f 93//102 92//102 197//102 198//102
f 37//103 36//103 240//103 211//103
f 85//104 84//104 169//104 170//104
f 141//105 144//105 166//105 218//105
f 111//106 110//106 183//106 184//106
f 76//107 106//107 172//107 216//107
f 49//108 48//108 244//108 189//108
f 125//109 45//109 219//109 214//109
f 126//110 125//110 214//110 215//110
f 65//111 64//111 182//111 178//111
f 64//112 93//112 198//112 182//112
f 122//113 121//113 228//113 229//113
f 61//114 60//114 167//114 168//114
f 133//115 130//115 162//115 245//115
f 138//116 101//116 180//116 181//116
f 73//117 72//117 177//117 213//117
f 144//118 146//118 242//118 166//118
f 27//119 26//119 155//119 156//119
f 22//120 21//120 55//120 54//120
f 26//121 25//121 152//121 151//121
f 24//122 23//122 51//122 50//122
f 28//123 27//123 99//123 98//123
f 25//124 24//124 71//124 70//124
f 23//125 22//125 75//125 74//125
f 21//126 20//126 136//126 135//126
f 20//127 19//127 132//127 131//127
f 19//128 18//128 128//128 127//128
f 18//129 17//129 47//129 46//129
f 17//130 16//130 79//130 78//130
f 16//131 15//131 108//131 107//131
f 15//132 14//132 124//132 123//132
f 14//133 13//133 43//133 42//133
f 13//134 12//134 67//134 66//134
f 12//135 11//135 95//135 94//135
f 11//136 10//136 120//136 119//136
f 10//137 9//137 39//137 38//137
f 9//138 8//138 63//138 62//138
f 8//139 7//139 91//139 90//139
f 7//140 6//140 116//140 115//140
f 6//141 5//141 35//141 34//141
f 5//142 4//142 59//142 58//142
f 34//143 33//143 113//143 116//143
f 88//144 91//144 115//144 114//144
f 38//145 37//145 117//145 120//145
f 92//146 95//146 119//146 118//146
f 42//147 41//147 121//147 124//147
f 105//148 108//148 123//148 122//148
f 46//149 45//149 125//149 128//149
f 129//150 132//150 127//150 126//150
f 54//151 53//151 72//151 75//151
f 48//152 51//152 74//152 73//152
f 70//153 69//153 149//153 152//153
f 153//154 155//154 151//154 150//154
f 58//155 57//155 32//155 35//155
f 62//156 61//156 36//156 39//156
f 66//157 65//157 40//157 43//157
f 68//158 71//158 50//158 49//158
f 78//159 77//159 44//159 47//159
f 98//160 97//160 100//160 103//160
f 86//161 85//161 56//161 59//161
f 90//162 89//162 60//162 63//162
f 94//163 93//163 64//163 67//163
f 131//164 130//164 133//164 136//164
f 52//165 55//165 135//165 134//165
f 156//166 154//166 96//166 99//166
f 107//167 106//167 76//167 79//167
f 30//168 29//168 137//168 140//168
f 102//169 101//169 138//169 137//169
f 44//170 77//170 190//170 246//170
f 110//171 109//171 140//171 139//171
f 31//172 30//172 109//172 112//172
f 139//173 138//173 181//173 195//173
f 145//174 148//174 112//174 111//174
f 69//175 68//175 163//175 226//175
f 84//176 87//176 81//176 80//176
f 3//177 2//177 82//177 81//177
f 142//178 141//178 83//178 82//178
f 105//179 122//179 229//179 239//179
f 2//180 1//180 143//180 142//180
f 147//181 146//181 144//181 143//181
f 84//182 80//182 237//182 169//182
f 89//183 88//183 187//183 193//183
f 52//184 134//184 192//184 159//184
f 4//185 3//185 87//185 86//185
f 1//186 31//186 148//186 147//186
f 29//187 28//187 103//187 102//187
f 153//188 154//188 156//188 155//188
f 157//189 217//189 165//189 199//189 194//189 243//189 202//189 203//189 204//189 227//189 164//189 196//189 234//189 248//189 173//189 174//189 220//189 191//189 171//189 210//189 236//189 179//189 206//189 207//189 212//189 175//189 176//189 188//189 231//189 232//189 158//189
f 204//190 209//190 208//190
f 248//191 159//191 192//191
f 225//192 202//192 201//192
f 177//193 160//193 234//193
f 196//194 244//194 213//194
f 227//195 233//195 226//195
f 163//196 189//196 164//196
f 173//197 245//197 162//197
f 174//198 161//198 215//198
f 220//199 214//199 219//199
f 191//200 246//200 190//200
f 171//201 216//201 172//201
f 210//202 239//202 229//202
f 236//203 228//203 235//203
f 179//204 241//204 178//204
f 206//205 182//205 198//205
f 207//206 197//206 224//206
f 212//207 223//207 211//207
f 175//208 240//208 168//208
f 176//209 167//209 193//209
f 188//210 187//210 205//210
f 231//211 221//211 222//211
f 232//212 185//212 186//212
f 170//213 158//213 230//213
f 237//214 157//214 169//214
f 242//215 165//215 166//215
f 218//216 217//216 238//216
f 184//217 199//217 200//217
f 181//218 180//218 243//218
f 195//219 194//219 183//219
f 249//220 209//220 204//220 203//220
f 160//221 159//221 248//221 234//221
f 208//222 233//222 227//222 204//222
f 189//223 244//223 196//223 164//223
f 225//224 247//224 203//224 202//224
f 226//225 163//225 164//225 227//225
f 213//226 177//226 234//226 196//226
f 192//227 245//227 173//227 248//227
f 162//228 161//228 174//228 173//228
f 215//229 214//229 220//229 174//229
f 219//230 246//230 191//230 220//230
f 190//231 216//231 171//231 191//231
f 172//232 239//232 210//232 171//232
f 229//233 228//233 236//233 210//233
f 235//234 241//234 179//234 236//234
f 178//235 182//235 206//235 179//235
f 198//236 197//236 207//236 206//236
f 224//237 223//237 212//237 207//237
f 211//238 240//238 175//238 212//238
f 168//239 167//239 176//239 175//239
f 193//240 187//240 188//240 176//240
f 205//241 221//241 231//241 188//241
f 222//242 185//242 232//242 231//242
f 186//243 230//243 158//243 232//243
f 243//244 194//244 195//244 181//244
f 194//245 199//245 184//245 183//245
f 217//246 157//246 237//246 238//246
f 165//247 217//247 218//247 166//247
f 170//248 169//248 157//248 158//248
f 242//249 200//249 199//249 165//249
f 180//250 201//250 202//250 243//250
f 134//251 133//251 245//251 192//251
